<svg width="996" height="750" viewBox="0 0 996 750" fill="none" xmlns="http://www.w3.org/2000/svg">
<g id="undraw_code_review_l1q9 1" clip-path="url(#clip0)">
<path id="Vector" d="M676.419 964.934C249.862 937.432 -258.827 657.412 -232.929 369.086C-207.031 80.7592 285.64 -187.649 712.197 -160.147C1138.75 -132.645 1384.29 406.189 1358.4 694.515C1332.5 982.842 1102.98 992.436 676.419 964.934Z" fill="url(#paint0_radial)"/>
<path id="Vector_2" d="M838.262 135.402H173.511V660.084H838.262V135.402Z" fill="#3F3D56"/>
<path id="Vector_3" d="M459.054 351.868L395.337 414.276L459.054 476.684L473.39 462.465L425.205 414.671L473.788 366.482L459.054 351.868Z" fill="#63CEFF"/>
<path id="Vector_4" d="M553.036 351.868L616.753 414.276L553.036 476.684L538.7 462.465L586.886 414.671L538.302 366.482L553.036 351.868Z" fill="#FFF963"/>
<path id="Vector_5" d="M965.579 166.022C965.579 54.7273 908.325 15.8674 837.699 15.8674C767.073 15.8674 709.819 54.7273 709.819 166.022C709.819 277.316 837.699 418.9 837.699 418.9C837.699 418.9 965.579 277.316 965.579 166.022Z" fill="#44892C"/>
<path id="Vector_6" d="M832.43 545.953L835.554 457.097L965.579 347.17L836.044 443.158L837.449 403.205L927.059 323.675L837.82 392.633L840.345 320.775L936.304 257.458L840.742 309.475L842.319 177.715L832.401 352.143L833.215 344.947L735.654 275.936L831.652 358.761L822.562 439.013L822.292 436.882L709.819 364.258L821.95 444.407L820.815 454.443L820.61 454.595L820.703 455.419L797.639 659.027H828.453L832.149 553.86L944.01 473.906L832.43 545.953Z" fill="#3F3D56"/>
<path id="Vector_7" d="M108.446 658.852C106.148 660.121 103.725 661.15 101.213 661.925C96.7216 663.142 91.9208 662.695 87.3839 663.734C85.5263 664.159 83.5047 665.049 82.9139 666.847C82.4806 668.165 82.952 669.589 83.4034 670.902C88.4166 685.481 91.4383 700.96 99.4332 714.166C102.793 719.712 106.964 724.734 111.808 729.067C113.626 730.692 115.686 732.282 118.119 732.536C119.24 732.654 120.373 732.476 121.403 732.02C122.433 731.565 123.323 730.848 123.984 729.942C124.646 729.036 125.054 727.973 125.169 726.86C125.283 725.748 125.1 724.625 124.637 723.605C123.92 722.025 122.588 720.801 121.729 719.293C120.797 717.372 120.25 715.289 120.119 713.161C119.33 706.925 118.569 700.408 120.747 694.507C122.208 690.549 124.888 687.175 127.12 683.588C129.353 680.002 131.208 675.894 130.711 671.707C130.372 668.851 128.967 666.237 127.483 663.765C125.996 661.289 123.057 654.635 120.069 653.809C116.968 652.951 111.151 657.477 108.446 658.852Z" fill="#2F2E41"/>
<path id="Vector_8" d="M190.195 709.21C190.242 710.621 190.043 712.029 189.608 713.373C188.673 715.823 186.353 717.501 185.154 719.835C183.487 723.081 184.243 727.005 185.347 730.48C186.04 732.658 186.948 734.924 188.807 736.271C190.398 737.249 192.206 737.824 194.073 737.944C210.024 740.134 226.228 738.878 242.324 739.337C245.258 739.42 248.364 739.522 250.925 738.1C253.486 736.678 255.07 733.103 253.328 730.76C251.764 728.656 248.671 728.675 246.039 728.551C239.183 728.206 232.655 725.538 227.543 720.994C226.535 720.14 225.661 719.142 224.949 718.033C224.402 717.048 223.947 716.015 223.592 714.947C221.335 708.884 218.651 702.987 215.559 697.299C214.693 695.707 213.713 694.049 212.104 693.197C210.926 692.666 209.648 692.389 208.355 692.385C204.343 692.127 193.954 690.773 190.852 693.867C187.985 696.726 190.259 705.579 190.195 709.21Z" fill="#2F2E41"/>
<path id="Vector_9" d="M214.882 355.873C229.035 355.873 240.507 344.494 240.507 330.456C240.507 316.419 229.035 305.04 214.882 305.04C200.73 305.04 189.257 316.419 189.257 330.456C189.257 344.494 200.73 355.873 214.882 355.873Z" fill="#FBBEBE"/>
<path id="Vector_10" d="M191.742 351.444C190.218 355.491 187.632 359.292 183.87 361.47L219.312 368.641C218.027 363.51 217.857 358.167 218.815 352.966C219.167 351.707 219.239 350.388 219.027 349.099C218.361 346.548 215.466 345.321 212.877 344.735C206.408 343.272 200.688 342.488 194.677 339.655C192.839 342.774 193.097 347.847 191.742 351.444Z" fill="#FBBEBE"/>
<path id="Vector_11" d="M183.574 351.953C187.387 350.242 191.541 349.41 195.725 349.518C199.908 349.626 204.013 350.673 207.73 352.579C212.274 354.954 216.036 358.539 219.733 362.076C223.14 365.337 226.775 369.07 227.016 373.759C227.134 376.031 226.419 378.253 226.058 380.5C225.409 385.146 226.233 389.877 228.417 394.037C230.601 398.197 234.035 401.581 238.245 403.718C241.06 408.37 241.641 414.007 241.684 419.432C241.848 439.99 235.309 460.802 239.977 480.832C241.073 485.535 242.773 490.09 243.72 494.824C244.947 500.957 244.886 507.263 245.528 513.482C246.224 520.217 247.742 526.843 250.05 533.215C248.508 535.648 245.298 536.581 242.407 536.384C239.516 536.187 236.813 534.943 234.233 533.633C221.743 527.294 210.302 518.934 197.365 513.546C188.807 509.981 179.689 507.761 171.386 503.644C163.083 499.527 155.36 492.993 152.822 484.137C151.724 480.308 151.656 476.273 151.596 472.292C151.344 455.526 151.11 438.576 154.789 422.21C158.034 407.777 164.289 393.97 165.653 379.244C166.098 374.451 166.107 369.32 168.807 365.32C172.623 359.667 180.864 358.203 183.574 351.953Z" fill="#2F2E41"/>
<path id="Vector_12" d="M200.308 330.815C201.818 328.862 204.73 328.595 207.142 329.173C209.555 329.751 211.779 330.984 214.215 331.453C214.769 331.608 215.35 331.648 215.92 331.569C216.49 331.489 217.037 331.293 217.526 330.991C218.377 330.159 218.887 329.043 218.955 327.86C219.808 322.823 220.007 317.7 219.548 312.613C219.421 311.9 219.469 311.167 219.688 310.475C220.291 309.034 222.132 308.691 223.635 308.228C226.114 307.397 228.244 305.77 229.687 303.604C231.131 301.439 231.806 298.858 231.605 296.269C231.568 295.028 231.042 293.85 230.14 292.988C229.101 292.148 227.646 292.097 226.305 292.086C219.417 292.031 212.529 292.033 205.64 292.091C203.091 292.112 200.413 292.175 198.203 293.435C196.569 294.367 195.354 295.868 193.887 297.042C190.061 300.104 184.885 300.727 180.231 302.297C177.958 302.939 175.895 304.159 174.245 305.837C172.697 307.591 171.953 310.199 172.925 312.322C173.424 313.206 173.982 314.057 174.594 314.869C177.34 319.224 175.512 324.872 175.922 329.992C176.434 336.385 185.973 346.756 192.441 348.269C202.884 350.711 196.851 335.012 200.308 330.815Z" fill="#2F2E41"/>
<path id="Vector_13" d="M185.842 611.125C186.501 615.793 187.346 620.478 187.12 625.186C186.804 631.759 184.414 638.093 183.973 644.659C183.643 649.563 184.406 654.52 183.719 659.388C183.279 662.505 182.255 665.51 181.62 668.593C180.616 673.619 180.644 678.793 181.704 683.807C182.763 688.821 184.833 693.572 187.787 697.774C188.221 698.493 188.839 699.086 189.577 699.494C190.285 699.754 191.043 699.853 191.795 699.785C199.253 699.634 206.692 698.964 214.055 697.778C214.594 697.756 215.105 697.533 215.485 697.153C215.651 696.901 215.757 696.615 215.795 696.316C217.16 689.354 214.047 682.374 213.255 675.326C212.41 667.8 214.23 660.258 216.037 652.901C216.857 649.272 217.881 645.691 219.104 642.175C219.977 639.809 221.032 637.507 221.79 635.102C222.862 631.324 223.515 627.44 223.737 623.521C224.263 617.336 224.541 611.138 224.573 604.925C224.751 599.038 224.257 593.15 223.1 587.373C221.439 580.059 218.038 573.267 214.666 566.557C212.864 566.985 211.171 567.783 209.698 568.899C205.353 571.69 200.817 574.176 196.122 576.338C192.968 577.791 186.817 578.823 184.815 581.852C182.841 584.838 184.115 590.931 184.265 594.225C184.524 599.879 185.05 605.512 185.842 611.125Z" fill="#2F2E41"/>
<path id="Vector_14" opacity="0.1" d="M185.842 611.125C186.501 615.793 187.346 620.478 187.12 625.186C186.804 631.759 184.414 638.093 183.973 644.659C183.643 649.563 184.406 654.52 183.719 659.388C183.279 662.505 182.255 665.51 181.62 668.593C180.616 673.619 180.644 678.793 181.704 683.807C182.763 688.821 184.833 693.572 187.787 697.774C188.221 698.493 188.839 699.086 189.577 699.494C190.285 699.754 191.043 699.853 191.795 699.785C199.253 699.634 206.692 698.964 214.055 697.778C214.594 697.756 215.105 697.533 215.485 697.153C215.651 696.901 215.757 696.615 215.795 696.316C217.16 689.354 214.047 682.374 213.255 675.326C212.41 667.8 214.23 660.258 216.037 652.901C216.857 649.272 217.881 645.691 219.104 642.175C219.977 639.809 221.032 637.507 221.79 635.102C222.862 631.324 223.515 627.44 223.737 623.521C224.263 617.336 224.541 611.138 224.573 604.925C224.751 599.038 224.257 593.15 223.1 587.373C221.439 580.059 218.038 573.267 214.666 566.557C212.864 566.985 211.171 567.783 209.698 568.899C205.353 571.69 200.817 574.176 196.122 576.338C192.968 577.791 186.817 578.823 184.815 581.852C182.841 584.838 184.115 590.931 184.265 594.225C184.524 599.879 185.05 605.512 185.842 611.125Z" fill="black"/>
<path id="Vector_15" d="M139.902 514.225C136.499 523.312 141.501 533.131 145.847 541.814C156.553 563.206 163.988 586.031 171.383 608.759C171.937 610.462 172.49 612.319 171.873 614C171.34 615.194 170.474 616.213 169.377 616.936C164.278 620.777 157.786 622.145 151.712 624.155C145.842 626.098 140.22 628.712 134.959 631.944C130.558 634.65 126.434 637.772 122.319 640.89L109.22 650.813C108.372 651.381 107.631 652.093 107.03 652.915C105.767 654.881 106.284 657.448 106.913 659.694C108.579 665.642 110.724 671.448 113.327 677.056C113.755 678.285 114.571 679.345 115.653 680.079C117.698 681.169 120.198 679.724 121.76 678.02C123.321 676.317 124.672 674.197 126.873 673.465C129.071 672.735 131.491 673.619 133.786 673.3C137.5 672.783 139.965 669.39 142.642 666.785C153.578 656.144 171.836 656.916 183.865 647.507C185.604 645.963 187.445 644.537 189.376 643.237C191.41 642.045 193.716 641.39 195.826 640.336C202.244 637.131 206.279 630.504 208.44 623.707C210.601 616.911 211.217 609.736 212.771 602.777C213.574 599.18 214.63 595.621 214.988 591.954C215.217 588.543 215.142 585.118 214.764 581.721L210.423 528.461C210.07 524.125 209.716 519.784 209.029 515.487C196.138 515.944 183.256 516.458 170.357 516.61C160.093 516.73 149.64 517.442 139.902 514.225Z" fill="#2F2E41"/>
<path id="Vector_16" d="M146.458 523.878C148.207 526.668 152.463 526.61 155.394 525.081C158.325 523.551 160.602 520.982 163.54 519.466C167.488 517.428 172.159 517.505 176.608 517.629C183.651 517.827 190.78 518.037 197.557 519.951C204.565 521.931 211.388 525.744 218.635 524.983C219.896 524.851 221.275 524.492 221.962 523.434C222.364 522.668 222.553 521.809 222.51 520.947L222.747 514.667C222.892 513.581 222.717 512.476 222.242 511.487C221.634 510.663 220.801 510.03 219.841 509.663C209.526 504.71 197.762 503.788 186.309 503.399C180.487 503.201 174.662 503.119 168.835 503.155C163.891 503.184 157.954 502.475 153.147 503.785C146.695 505.544 143.185 518.657 146.458 523.878Z" fill="#2F2E41"/>
<path id="Vector_17" d="M211.228 359.408C197.713 359.29 185.465 350.441 171.951 350.226C170.318 350.114 168.682 350.394 167.182 351.042C165.298 351.983 164.06 353.802 162.63 355.339C158.634 359.631 152.847 361.922 148.742 366.112C144.893 370.04 142.752 375.892 144.272 381.158C145.791 386.424 151.527 390.464 156.9 389.198C159.065 382.248 163.533 376.227 169.58 372.111C172.726 370.109 176.042 368.382 179.489 366.951C185.563 364.221 192.355 361.44 198.697 363.486C201.035 364.362 203.24 365.554 205.249 367.03L215.821 374.074C214.589 369.254 213.482 363.849 211.228 359.408Z" fill="#63CEFF"/>
<path id="Vector_18" d="M155.343 384.538C153.549 386.759 156.134 389.977 155.738 392.796C155.475 394.669 153.921 396.099 153.274 397.877C152.604 399.72 152.959 401.761 152.705 403.703C152.45 405.115 152.073 406.504 151.578 407.852C150.439 411.88 149.644 415.995 149.202 420.155L146.836 437.678C146.426 440.315 146.176 442.974 146.088 445.641C146.207 447.634 146.073 449.634 145.688 451.594C145.164 453.509 144.004 455.184 143.224 457.011C142.444 458.838 142.082 461.048 143.136 462.734C139.606 465.65 138.556 471.378 141.025 475.221C141.495 475.82 141.862 476.491 142.113 477.208C142.249 478.21 142.082 479.23 141.634 480.138L139.241 486.46C138.629 488.078 138.436 490.541 140.138 490.911C138.728 492.363 137.629 494.084 136.909 495.969C136.559 496.916 136.455 497.934 136.605 498.931C136.755 499.928 137.155 500.872 137.769 501.676C138.363 502.193 138.869 502.802 139.267 503.48C139.501 504.424 139.441 505.416 139.094 506.325C138.736 507.705 138.667 509.144 138.891 510.552C139.115 511.96 139.628 513.308 140.397 514.512C141.193 515.7 142.322 516.632 143.644 517.194C144.966 517.756 146.425 517.924 147.842 517.677C152.627 516.607 156.927 514.917 161.751 515.795C172.139 517.686 182.561 519.584 192.622 522.77C204.105 526.407 215.224 531.739 227.225 532.859C228.014 533.019 228.836 532.892 229.539 532.502C230.151 531.927 230.531 531.151 230.609 530.319C231.846 524.569 233.082 518.819 234.318 513.07C235.813 506.696 236.951 500.245 237.728 493.747C238.15 489.553 238.27 485.335 238.391 481.122L239.346 447.586C239.794 442.644 239.13 437.664 237.401 433.008L231.902 415.597C228.764 405.661 221.566 396.85 219.002 386.753C217.38 380.363 216.182 373.505 211.832 368.524C205.63 361.424 194.9 360.319 185.509 361.54C181.266 362.092 176.987 363.043 173.317 365.226C169.074 367.749 165.948 371.725 162.923 375.608C160.431 378.809 157.894 381.383 155.343 384.538Z" fill="#FCFF63"/>
<path id="Vector_19" d="M177.272 483.179C178.046 486.488 179.671 489.539 180.665 492.79C182.332 498.236 182.19 504.102 183.854 509.549C184.552 511.836 185.563 514.031 186.064 516.367C187.232 521.815 185.527 527.451 183.408 532.609C181.289 537.767 178.709 542.853 178.021 548.381C177.536 552.274 178.232 556.671 181.258 559.197C184.399 561.82 188.964 561.643 193.055 561.294C194.524 561.253 195.973 560.953 197.336 560.409C200.465 558.941 201.783 555.269 202.514 551.914C204.965 540.669 204.265 529.014 203.553 517.531L201.69 487.501C201.331 481.719 200.947 475.818 199.151 470.267C198.498 468.248 197.359 464.167 195.499 462.878C193.657 461.601 188.398 461.544 186.117 461.438C175.418 460.939 175.538 475.751 177.272 483.179Z" fill="#FBBEBE"/>
<path id="Vector_20" d="M189.126 372.301C186.941 371.166 184.188 371.656 182.076 372.919C180.037 374.304 178.25 376.024 176.794 378.005C172.073 383.722 167.074 390.281 167.775 397.639C168.037 400.397 169.102 403.008 169.824 405.684C172.99 417.421 169.489 429.834 169.891 441.976C170.123 448.993 171.662 455.894 173.195 462.748C173.508 464.147 174.009 465.766 175.373 466.237C176.398 466.591 177.505 466.136 178.519 465.753C182.298 464.368 186.357 463.906 190.354 464.406C194.35 464.905 198.167 466.352 201.481 468.624C204.015 467.283 203.065 463.042 202.497 460.25C200.809 451.954 203.1 443.395 205.883 435.395C208.665 427.394 211.995 419.403 212.456 410.952C212.978 401.377 209.777 392.03 206.619 382.967C205.929 380.989 205.176 378.914 203.578 377.547C202.209 376.538 200.641 375.828 198.976 375.462C195.622 374.479 192.225 373.911 189.126 372.301Z" fill="#2F2E41"/>
</g>
<defs>
<radialGradient id="paint0_radial" cx="0" cy="0" r="1" gradientUnits="userSpaceOnUse" gradientTransform="translate(1053.8 -41.1661) rotate(143.162) scale(1205.86 1599.42)">
<stop stop-color="#309FA6"/>
<stop offset="1" stop-color="#2A3637" stop-opacity="0"/>
</radialGradient>
<clipPath id="clip0">
<rect width="996" height="750" fill="white"/>
</clipPath>
</defs>
</svg>
