<svg width="1020" height="763" viewBox="0 0 1020 763" fill="none" xmlns="http://www.w3.org/2000/svg">
<g id="undraw_code_review_l1q9 1" clip-path="url(#clip0)">
<path id="Vector" d="M951.898 1006.14C1351.56 562.668 204.819 705.012 7.16895 279.767C375.844 -7.12063 718.916 112.924 665.663 -17.2947C911.446 430.332 868.329 -121.395 841.807 171.929C815.285 465.253 1103.73 611.5 951.898 1006.14Z" fill="url(#paint0_radial)"/>
<path id="Vector_2" d="M178.692 138.749H857.461V670.526H178.692V138.749Z" fill="white" stroke="black" stroke-width="2"/>
<path id="Vector_3" d="M388.252 363L323 426.49L388.252 489.979L402.934 475.513L353.587 426.891L403.341 377.867L388.252 363Z" fill="#63CEFF"/>
<path id="Vector_4" d="M662.089 367L727.341 430.49L662.089 493.979L647.408 479.513L696.755 430.891L647 381.867L662.089 367Z" fill="#63C4FF"/>
<path id="Vector_5" d="M988.846 168.899C988.846 55.6758 930.213 16.1423 857.885 16.1423C785.557 16.1423 726.923 55.6758 726.923 168.899C726.923 282.123 857.885 426.161 857.885 426.161C857.885 426.161 988.846 282.123 988.846 168.899Z" fill="#63C4FF"/>
<path id="Vector_6" d="M852.489 555.416L855.688 465.02L988.846 353.187L856.189 450.84L857.628 410.194L949.398 329.285L858.008 399.438L860.595 326.335L958.865 261.92L861 314.84L862.616 180.795L852.459 358.247L853.293 350.926L753.381 280.719L851.692 364.979L842.383 446.622L842.106 444.454L726.923 370.572L841.756 452.11L840.594 462.32L840.383 462.474L840.479 463.313L816.859 670.45H848.415L852.201 563.46L966.757 482.12L852.489 555.416Z" fill="#3F3D56"/>
<g id="undraw_cup_of_tea_6nqg 1" clip-path="url(#clip1)">
<path id="Vector_7" d="M614.82 470.023C614.82 474.514 573.005 488 521.425 488C469.844 488 428.03 474.514 428.03 470.023C428.03 465.531 469.844 471.735 521.425 471.735C573.005 471.735 614.82 465.531 614.82 470.023Z" fill="#3F3D56"/>
<path id="Vector_8" d="M521.425 478.155C573.005 478.155 614.82 474.514 614.82 470.023C614.82 465.531 573.005 461.89 521.425 461.89C469.844 461.89 428.03 465.531 428.03 470.023C428.03 474.514 469.844 478.155 521.425 478.155Z" fill="#3F3D56"/>
<path id="Vector_9" d="M595.559 388.764H553.574V389.029H453.175V403.497C453.175 440.688 483.49 470.837 520.886 470.837H520.886C532.721 470.841 544.35 467.76 554.614 461.899C564.877 456.038 573.415 447.602 579.377 437.435H595.559C602.048 437.435 608.272 434.871 612.861 430.307C617.45 425.743 620.028 419.554 620.028 413.099C620.028 406.645 617.45 400.456 612.861 395.892C608.272 391.328 602.048 388.764 595.559 388.764ZM595.559 429.933H583.178C586.765 421.576 588.608 412.583 588.597 403.497V396.266H595.559C600.048 396.266 604.353 398.04 607.527 401.197C610.701 404.353 612.485 408.635 612.485 413.099C612.485 417.564 610.701 421.845 607.527 425.002C604.353 428.159 600.048 429.933 595.559 429.933V429.933Z" fill="#3F3D56"/>
<path id="Vector_10" d="M459.461 395.281V403.497C459.461 437.181 487.016 464.585 520.886 464.585C554.756 464.585 582.311 437.181 582.311 403.497V395.281H459.461Z" fill="#63CEFF"/>
<path id="Vector_11" d="M567.725 382.98L564.719 384.488L564.93 384.905L567.937 383.397L567.725 382.98Z" fill="#3F3D56"/>
</g>
</g>
<defs>
<radialGradient id="paint0_radial" cx="0" cy="0" r="1" gradientUnits="userSpaceOnUse" gradientTransform="translate(1079.19 -41.8786) rotate(143.344) scale(1231.99 1631.01)">
<stop stop-color="#9FA1A2"/>
<stop offset="1" stop-color="#2A3637" stop-opacity="0"/>
</radialGradient>
<clipPath id="clip0">
<rect width="1020" height="763" fill="white"/>
</clipPath>
<clipPath id="clip1">
<rect width="273" height="242" fill="white" transform="translate(385 246)"/>
</clipPath>
</defs>
</svg>
